<?xml version='1.0' encoding='UTF-8'?>
<svg viewBox="-2 -2 32 32" xmlns="http://www.w3.org/2000/svg" xmlns:xlink="http://www.w3.org/1999/xlink">
  <g transform="translate(0, 0)">
    <g transform="translate(0.0001, 0.0001)">
      <g transform="matrix(0.875, 0, 0, 0.875, 0, 0)">
        <g transform="translate(0, 0)">
          <g transform="matrix(1.1429, 0, 0, 1.1429, 0, 0)">
            <g id="Layer_1" transform="translate(-2, -2)" style="enable-background:new 0 0 32 32">
              <g id="FullScreen">
                <polygon points="2,12 6,12 6,6 12,6 12,2 2,2  " fill="#1C1C1C" />
              </g>
            </g>
          </g>
        </g>
      </g>
    </g>
  </g>
  <g transform="translate(0, 0)">
    <g transform="translate(0.0001, 0.0001)">
      <g transform="matrix(0.875, 0, 0, 0.875, 0, 0)">
        <g transform="translate(0, 0)">
          <g transform="matrix(1.1429, 0, 0, 1.1429, 0, 0)">
            <g id="Layer_1" transform="translate(-2, -2)" style="enable-background:new 0 0 32 32">
              <g id="FullScreen">
                <polygon points="6,20 2,20 2,30 12,30 12,26 6,26  " fill="#1C1C1C" />
              </g>
            </g>
          </g>
        </g>
      </g>
    </g>
  </g>
  <g transform="translate(0, 0)">
    <g transform="translate(0.0001, 0.0001)">
      <g transform="matrix(0.875, 0, 0, 0.875, 0, 0)">
        <g transform="translate(0, 0)">
          <g transform="matrix(1.1429, 0, 0, 1.1429, 0, 0)">
            <g id="Layer_1" transform="translate(-2, -2)" style="enable-background:new 0 0 32 32">
              <g id="FullScreen">
                <polygon points="20,2 20,6 26,6 26,12 30,12 30,2  " fill="#1C1C1C" />
              </g>
            </g>
          </g>
        </g>
      </g>
    </g>
  </g>
  <g transform="translate(0, 0)">
    <g transform="translate(0.0001, 0.0001)">
      <g transform="matrix(0.875, 0, 0, 0.875, 0, 0)">
        <g transform="translate(0, 0)">
          <g transform="matrix(1.1429, 0, 0, 1.1429, 0, 0)">
            <g id="Layer_1" transform="translate(-2, -2)" style="enable-background:new 0 0 32 32">
              <g id="FullScreen">
                <polygon points="26,26 20,26 20,30 30,30 30,20 26,20  " fill="#1C1C1C" />
              </g>
            </g>
          </g>
        </g>
      </g>
    </g>
  </g>
  <g id="Layer_1" transform="translate(6, 6)" style="enable-background:new 0 0 16 16">
    <g id="Settings">
      <path d="M16, 9L16, 7L13.5, 6.4C13.4, 6 13.2, 5.6 13, 5.2L14.5, 3.1L12.9, 1.5L10.8, 3C10.4, 2.8 10, 2.6 9.6, 2.5L9, 0L7, 0L6.4, 2.5C6, 2.6 5.6, 2.8 5.2, 3L3.2, 1.5L1.5, 3.2L3, 5.2C2.8, 5.6 2.6, 6 2.5, 6.4L0, 7L0, 9L2.5, 9.6C2.6, 10 2.8, 10.4 3, 10.8L1.5, 12.9L3.1, 14.5L5.2, 13C5.6, 13.2 6, 13.4 6.4, 13.5L7, 16L9, 16L9.6, 13.5C10, 13.4 10.4, 13.2 10.8, 13L12.9, 14.5L14.5, 12.9L13, 10.8C13.2, 10.4 13.4, 10 13.5, 9.6L16, 9z" style="fill:#00DBC7" />
    </g>
  </g>
  <g id="Layer_1" transform="translate(6, 6)" style="enable-background:new 0 0 16 16">
    <g id="Settings">
      <circle cx="8" cy="8" r="2" fill="#FFFFFF" class="White" />
    </g>
  </g>
</svg>