<svg version="1.1" xmlns="http://www.w3.org/2000/svg" xmlns:xlink="http://www.w3.org/1999/xlink" width="550.8" height="550.8" style="enable-background:new 0 0 550.8 550.8;" xml:space="preserve"><rect id="backgroundrect" width="100%" height="100%" x="0" y="0" fill="none" stroke="none"/><g class="currentLayer" style=""><title>Layer 1</title><g id="adb" class="selected" fill-opacity="1" fill="#00dbc7"><path d="M96.9,372.3c0,99.45,79.05,178.5,178.5,178.5s178.5-79.05,178.5-178.5v-102h-357V372.3z M379.95,76.5l53.55-53.55    L413.1,2.55L354.45,61.2c-22.95-12.75-51-20.4-79.05-20.4s-56.1,7.65-79.05,17.85L137.7,0l-20.4,22.95l53.55,53.55    c-45.9,30.6-73.95,84.15-73.95,142.8v25.5h357v-25.5C453.9,160.65,425.85,107.1,379.95,76.5z M198.9,193.8    c-15.3,0-25.5-10.2-25.5-25.5s10.2-25.5,25.5-25.5s25.5,10.2,25.5,25.5S214.2,193.8,198.9,193.8z M351.9,193.8    c-15.3,0-25.5-10.2-25.5-25.5s10.2-25.5,25.5-25.5s25.5,10.2,25.5,25.5S367.2,193.8,351.9,193.8z" id="svg_1" fill="#00dbc7"/></g></g></svg>